<svg xmlns="http://www.w3.org/2000/svg" viewBox="0 0 128 128" fill="none" shape-rendering="auto"><metadata xmlns:rdf="http://www.w3.org/1999/02/22-rdf-syntax-ns#" xmlns:xsi="http://www.w3.org/2001/XMLSchema-instance" xmlns:dc="http://purl.org/dc/elements/1.1/" xmlns:dcterms="http://purl.org/dc/terms/"><rdf:RDF><rdf:Description><dc:title>Croodles - Doodle your face</dc:title><dc:creator>vijay verma</dc:creator><dc:source xsi:type="dcterms:URI">https://www.figma.com/community/file/966199982810283152</dc:source><dcterms:license xsi:type="dcterms:URI">https://creativecommons.org/licenses/by/4.0/</dcterms:license><dc:rights>Remix of „Croodles - Doodle your face” (https://www.figma.com/community/file/966199982810283152) by „vijay verma”, licensed under „CC BY 4.0” (https://creativecommons.org/licenses/by/4.0/)</dc:rights></rdf:Description></rdf:RDF></metadata><mask id="viewboxMask"><rect width="128" height="128" rx="0" ry="0" x="0" y="0" fill="#fff" /></mask><g mask="url(#viewboxMask)"><rect fill="#ffdfbf" width="128" height="128" x="0" y="0" /><g transform="translate(7 4)"><path d="M33 35.6c-1.8-1.7.5-4.4 2.5-3.4 2.5 1.3 3.4 4.3 1.2 6.5s-7.2.8-7.5-4.5c-.3-5.3 6.5-9.2 10-3 3.3 6.3 2.2 11.9-5.2 11.9-5.1 0-7.3-3.6-7.9-7-1-6.7 2.5-13.6 9.7-12 4.5 1 9.7 4 8.8 13.3-1 9.3-6 10.3-12.3 9.2-7.7-1.3-9.8-8.2-7.3-16M78.5 35.6c-1.9-1.7.4-4.4 2.4-3.4 2.5 1.3 3.4 4.3 1.2 6.5-2.1 2.2-7.1.8-7.5-4.5-.3-5.3 6.5-9.2 10-3 3.3 6.3 2.2 11.9-5.2 11.9-5.1 0-7.3-3.6-7.8-7-1-6.7 2.4-13.6 9.7-12 4.4 1 9.6 4 8.7 13.3-1 9.3-6 10.3-12.3 9.2-7.7-1.3-9.8-8.2-7.3-16M29.8 15.9c3 2.2 8.8 2.6 12 1M72.2 16.8c3.6 1 9.2-.3 11.8-2.8" stroke="#000" stroke-width="3" stroke-linecap="round" stroke-linejoin="round"/></g><g transform="translate(47 46)"><path d="M20.8 8c2.7 8 7.6 25.3 5.8 29.4-2.1 5-5.4-2.3-5.4 3.5-1 2.8-3.8 3.2-5.1-1.6-1.3-4.7-5.2 3.5-6.5 1.6-3.6-1.6-.7-7.1 1.2-8.9" stroke="#000" stroke-width="3" stroke-linecap="round" stroke-linejoin="round"/></g><g transform="translate(30 93)"><g stroke="#000" stroke-width="3" stroke-linecap="round" stroke-linejoin="round"><path d="M16 6.6c5.3 2.5 13.5 8 22.7 7.7 11-.3 14.6-6.1 16-9.3"/><path d="M34.3 6.3c-3-1.9-8.6 1.8-10 4.2 1.6 5.5 7.4 9.2 14 9.2 7.3 0 11.3-6.3 12-8.5h0c-.7-1.2-1.8-3.3-4.8-4.9-3.7-2-6.1 6-6.8 6-.7 0-.6-3.6-4.4-6Z"/></g></g></g></svg>